<svg width="66" height="80" viewBox="0 0 66 80" fill="none" xmlns="http://www.w3.org/2000/svg">
<path d="M24.6943 10.1211H6.57965C2.96962 10.1211 0.00422771 13.0865 0.00422771 16.761C-0.124702 20.3066 2.71176 23.2719 6.25733 23.4009H24.8877L24.6943 10.1211Z" fill="#073042"/>
<path d="M65.7581 69.171H6.57933C2.90483 69.171 0.00390625 66.2056 0.00390625 62.5311V16.6965C0.00390625 20.371 2.96929 23.3364 6.57933 23.4009H56.1529C56.1529 23.4009 65.8226 22.5628 65.8226 29.8474V69.171H65.7581Z" fill="#4285F4"/>
<path d="M38.1672 45.7057C40.8103 43.7073 41.326 39.9683 39.3276 37.3897C38.2317 35.9715 36.5556 35.069 34.7506 35.0045H34.944C35.2663 34.9401 35.6531 34.9401 35.9754 35.0045V31.33C35.9754 30.8788 35.782 30.492 35.3952 30.2986C34.8151 29.9763 34.1059 30.1697 33.7836 30.7498C33.6547 30.9432 33.5902 31.1366 33.6547 31.3945V35.1335C30.4314 35.6492 28.1752 38.679 28.6909 41.9667V42.0312C28.9488 43.5784 29.7868 44.9966 31.0761 45.8991L20.1815 69.2354H27.2727L32.3009 58.5342C32.8811 57.2449 34.4283 56.6648 35.782 57.3094C36.2978 57.5673 36.749 58.0185 37.0069 58.5342L42.2285 69.2354H49.4486L38.1672 45.7057ZM34.4927 44.6743C32.4299 44.6743 30.8182 42.9982 30.8182 40.9353C30.8182 38.8724 32.4943 37.2608 34.5572 37.3253C35.5242 37.3253 36.3622 37.7121 37.0713 38.3567C38.554 39.7749 38.554 42.0957 37.1358 43.5784C36.4911 44.223 35.5242 44.6743 34.4927 44.6743Z" fill="#3870B2"/>
<path d="M20.762 13.3442H46.1611V17.9857H20.762V13.3442Z" fill="white"/>
<path d="M32.5589 37.2608C34.5573 37.2608 36.2334 38.9369 36.169 40.9998C36.169 42.9982 34.4929 44.6743 32.43 44.6098C30.4316 44.6098 28.82 42.9337 28.82 40.9353C28.82 39.9683 29.2067 39.0658 29.9159 38.3567C30.625 37.6476 31.5919 37.2608 32.5589 37.2608ZM33.9771 35.1335V31.2656C33.9771 30.8143 33.7838 30.4275 33.397 30.2341C32.8168 29.9118 32.1077 30.1052 31.7853 30.6854C31.6564 30.8788 31.5919 31.0722 31.6564 31.33V35.069C28.4332 35.5847 26.1769 38.6146 26.6926 41.9023V41.9668C26.9505 43.5139 27.7885 44.9321 29.0778 45.8347L15.3468 75.2951C14.8311 76.3266 14.8955 77.6159 15.6046 78.5829C16.6361 80.0655 18.6345 80.4523 20.1172 79.4209C20.6329 79.0986 21.0197 78.5828 21.2776 78.0671L30.4316 58.4698C31.0118 57.1805 32.5589 56.6003 33.9127 57.245C34.4284 57.5028 34.8797 57.9541 35.1375 58.4698L44.4849 77.8737C45.2585 79.4854 47.1925 80.13 48.8041 79.3564C50.4157 78.5828 51.0604 76.6489 50.2868 75.0373L36.169 45.7057C38.7476 43.6428 39.1988 39.8394 37.1359 37.2608C36.3623 36.2294 35.2664 35.5203 33.9771 35.1335Z" fill="#073042"/>
<path d="M42.4219 17.47C41.455 17.47 40.6814 16.7609 40.6814 15.7939C40.6814 15.3427 40.8748 14.8269 41.1971 14.5046C41.9062 13.86 42.9376 13.86 43.6468 14.5046C43.9691 14.8269 44.1625 15.2782 44.1625 15.7294C44.098 16.6964 43.3889 17.4055 42.4219 17.47ZM23.3403 17.4055C22.3733 17.4055 21.5997 16.632 21.5997 15.7294C21.5997 15.2782 21.7931 14.8269 22.1155 14.5046C22.6957 13.7955 23.7916 13.6666 24.5007 14.2468H24.5651C25.2742 14.8914 25.3387 15.9873 24.6941 16.6964L24.5007 16.9543C24.1783 17.2766 23.7271 17.47 23.2758 17.47M42.9376 7.02668L46.3543 1.0959C46.5477 0.773579 46.4187 0.38679 46.1609 0.12893C45.8386 2.88181e-08 45.5162 0.0644649 45.3228 0.322325L41.7773 6.4465C36.1044 3.93236 29.6579 3.93236 24.0494 6.4465L20.5683 0.38679C20.4394 0.193395 20.1815 0 19.9237 0C19.6658 0 19.4079 0.12893 19.279 0.38679C19.1501 0.580185 19.1501 0.902509 19.279 1.0959L22.7601 7.02668C16.7004 10.3144 12.7681 16.503 12.1879 23.3363H53.5744C53.0586 16.4386 49.0618 10.3144 43.0021 7.02668" fill="#3DDC84"/>
<path d="M59.6984 36.1647H56.9909C56.862 36.2291 56.733 36.3581 56.733 36.5515V79.4206C56.733 79.614 56.862 79.743 57.0554 79.743H59.8918C63.1795 79.743 65.8226 77.0354 65.8226 73.8122V30.1694C65.8226 33.4571 63.1795 36.1002 59.8918 36.1002H59.6984V36.1647Z" fill="#073042"/>
</svg>
