<svg width="54" height="80" viewBox="0 0 54 80" fill="none" xmlns="http://www.w3.org/2000/svg">
<path d="M13.3333 79.9999C20.7132 79.9999 26.6667 74.0464 26.6667 66.6666V53.3333H13.3333C5.95349 53.3333 0 59.2867 0 66.6666C0 74.0464 5.95349 79.9999 13.3333 79.9999Z" fill="#0ACF83"/>
<path d="M0 40.0001C0 32.6202 5.95349 26.6667 13.3333 26.6667H26.6667V53.3334H13.3333C5.95349 53.3334 0 47.3799 0 40.0001Z" fill="#A259FF"/>
<path d="M0 13.3333C0 5.95349 5.95349 0 13.3333 0H26.6667V26.6667H13.3333C5.95349 26.6667 0 20.7132 0 13.3333Z" fill="#F24E1E"/>
<path d="M26.6666 0H40C47.3798 0 53.3333 5.95349 53.3333 13.3333C53.3333 20.7132 47.3798 26.6667 40 26.6667H26.6666V0Z" fill="#FF7262"/>
<path d="M53.3333 40.0001C53.3333 47.3799 47.3798 53.3334 40 53.3334C32.6201 53.3334 26.6666 47.3799 26.6666 40.0001C26.6666 32.6202 32.6201 26.6667 40 26.6667C47.3798 26.6667 53.3333 32.6202 53.3333 40.0001Z" fill="#1ABCFE"/>
</svg>
