<svg width="82" height="80" viewBox="0 0 82 80" fill="none" xmlns="http://www.w3.org/2000/svg">
<path d="M40.9931 0C35.6098 0 30.2792 1.06032 25.3057 3.12041C20.3322 5.18051 15.8132 8.20004 12.0066 12.0066C4.3189 19.6943 0 30.121 0 40.9931C0 59.112 11.765 74.4844 28.0393 79.9365C30.0889 80.2645 30.7448 78.9937 30.7448 77.8869V70.959C19.3897 73.4186 16.9711 65.4659 16.9711 65.4659C15.0855 60.7107 12.4209 59.44 12.4209 59.44C8.69053 56.8984 12.7079 56.9804 12.7079 56.9804C16.8072 57.2673 18.9798 61.2027 18.9798 61.2027C22.5462 67.4336 28.5722 65.5889 30.9088 64.6051C31.2777 61.9405 32.3435 60.1368 33.4913 59.112C24.3909 58.0872 14.8395 54.5618 14.8395 38.9434C14.8395 34.3932 16.3972 30.7448 19.0618 27.8343C18.6519 26.8095 17.2171 22.5462 19.4717 17.0121C19.4717 17.0121 22.9151 15.9053 30.7448 21.1934C33.9833 20.2916 37.5087 19.8407 40.9931 19.8407C44.4775 19.8407 48.0029 20.2916 51.2414 21.1934C59.071 15.9053 62.5144 17.0121 62.5144 17.0121C64.7691 22.5462 63.3343 26.8095 62.9244 27.8343C65.5889 30.7448 67.1467 34.3932 67.1467 38.9434C67.1467 54.6028 57.5543 58.0462 48.4128 59.071C49.8886 60.3418 51.2414 62.8424 51.2414 66.6547V77.8869C51.2414 78.9937 51.8972 80.3054 53.9879 79.9365C70.2621 74.4434 81.9862 59.112 81.9862 40.9931C81.9862 35.6098 80.9258 30.2792 78.8658 25.3057C76.8057 20.3322 73.7861 15.8132 69.9796 12.0066C66.173 8.20004 61.654 5.18051 56.6805 3.12041C51.7069 1.06032 46.3764 0 40.9931 0Z" fill="white"/>
</svg>
