<svg width="60" height="80" viewBox="0 0 60 80" fill="none" xmlns="http://www.w3.org/2000/svg">
<path d="M18.4369 61.777C18.4369 61.777 15.2019 63.4909 20.743 64.0702C27.4555 64.768 30.8865 64.6675 38.2826 63.3949C38.2826 63.3949 40.2321 64.5043 42.947 65.4657C26.362 71.9346 5.41107 65.0908 18.4369 61.777ZM16.4086 53.3333C16.4086 53.3333 12.7796 55.7807 18.3246 56.3027C25.4961 56.9762 31.1574 57.0318 40.9611 55.3135C40.9611 55.3135 42.3136 56.5655 44.4444 57.248C24.3958 62.5877 2.06471 57.6686 16.4086 53.3333Z" fill="#0074BD"/>
<path d="M33.1545 39.1666C37.0015 43.5057 32.1462 47.4072 32.1462 47.4072C32.1462 47.4072 41.9078 42.4695 37.4251 36.2841C33.237 30.5182 30.0277 27.6547 47.4072 17.7776C47.4072 17.7776 20.1253 24.4526 33.1545 39.1666Z" fill="#EA2D2E"/>
<path d="M54.2008 69.2822C54.2008 69.2822 56.4745 71.1292 51.6972 72.557C42.6138 75.268 13.8865 76.086 5.90719 72.6647C3.04082 71.435 8.41925 69.729 10.1105 69.3706C11.8746 68.9939 12.8824 69.063 12.8824 69.063C9.69257 66.8494 -7.7366 73.41 4.02993 75.2919C36.1191 80.4164 62.5232 72.9835 54.2008 69.2822ZM20.5728 45.2084C20.5728 45.2084 5.96142 48.6287 15.3991 49.8722C19.3855 50.3973 27.3265 50.2766 34.7289 49.665C40.7767 49.1648 46.8461 48.0953 46.8461 48.0953C46.8461 48.0953 44.7154 48.9962 43.1719 50.0335C28.3315 53.8793 -0.331329 52.0877 7.92095 48.1561C14.898 44.8298 20.5728 45.2084 20.5728 45.2084ZM46.7853 59.6431C61.8697 51.9219 54.8945 44.5009 50.0266 45.5004C48.8364 45.7454 48.3017 45.9573 48.3017 45.9573C48.3017 45.9573 48.7458 45.2719 49.59 44.9781C59.2212 41.6434 66.6265 54.8171 46.4843 60.0346C46.4843 60.0346 46.7152 59.8283 46.7853 59.6431Z" fill="#0074BD"/>
<path d="M36.374 0C36.374 0 44.7323 8.4207 28.4451 21.3669C15.3843 31.7545 25.4666 37.676 28.4395 44.4444C20.8155 37.5168 15.2234 31.4182 18.9746 25.7435C24.4835 17.4141 39.7454 13.3738 36.374 0Z" fill="#EA2D2E"/>
<path d="M22.9381 79.8037C37.0573 80.5237 58.7458 79.4029 59.2592 74.074C59.2592 74.074 58.2726 76.0937 47.5883 77.6967C35.5354 79.5062 20.6676 79.296 11.8518 78.1352C11.8518 78.1352 13.6573 79.328 22.9381 79.8037Z" fill="#0074BD"/>
</svg>
