<svg width="68" height="48" viewBox="0 0 68 48" fill="none" xmlns="http://www.w3.org/2000/svg">
<path d="M43.5532 11.1879H53.3664L40.8891 32.7991L43.9372 34.5589L57.4305 11.1879H67.2437L45.9902 48L33.6219 40.8118L28.2517 37.6908L33.6219 28.3895L43.5532 11.1879Z" fill="url(#paint0_linear_115_67)"/>
<path d="M23.6905 11.1879H13.8773L26.3546 32.7991L23.3065 34.5589L9.81322 11.1879H0L21.2535 48L33.6219 40.8118L28.2517 37.6908L33.6219 28.3895L23.6905 11.1879Z" fill="url(#paint1_linear_115_67)"/>
<path d="M28.2925 9.30134L33.6626 12.4223L39.0327 9.30134L33.6626 0L28.2925 9.30134Z" fill="#E8BC55"/>
<defs>
<linearGradient id="paint0_linear_115_67" x1="33.6219" y1="0" x2="33.6219" y2="48" gradientUnits="userSpaceOnUse">
<stop stop-color="#EDB932"/>
<stop offset="0.397704" stop-color="#E8BC55"/>
<stop offset="1" stop-color="#B4843E"/>
</linearGradient>
<linearGradient id="paint1_linear_115_67" x1="33.6219" y1="0" x2="33.6219" y2="48" gradientUnits="userSpaceOnUse">
<stop stop-color="#EDB932"/>
<stop offset="0.397704" stop-color="#E8BC55"/>
<stop offset="1" stop-color="#B4843E"/>
</linearGradient>
</defs>
</svg>
