<svg width="78" height="80" viewBox="0 0 78 80" fill="none" xmlns="http://www.w3.org/2000/svg">
<path fill-rule="evenodd" clip-rule="evenodd" d="M24.5179 20.5745C28.2845 20.5745 32.0512 20.6326 35.8129 20.5344C36.8107 20.5083 38.6008 21.3336 38.5205 19.2598C38.4594 17.572 36.8939 18.1827 35.9452 18.1677C31.6962 18.1005 27.4331 17.939 23.2011 18.2048C20.1896 18.3923 19.3021 17.2491 19.6802 14.4872C19.8105 13.5345 19.6852 12.5477 19.7052 11.577C19.8376 5.11269 21.4 2.91246 27.6698 1.31794C34.5774 -0.437031 41.6464 -0.378866 48.5349 1.13342C54.7274 2.49327 57.2997 7.31091 56.9868 11.7675C56.6058 17.2059 56.9006 22.6915 56.8956 28.157C56.8866 35.0294 53.3355 38.6768 46.4069 38.772C40.7007 38.8502 34.9875 38.9124 29.2844 38.754C22.4871 38.5634 17.501 44.2094 17.4669 50.6075C17.4669 51.0929 17.5501 51.5943 17.4539 52.0627C16.9645 54.4123 18.92 58.2101 16.429 58.9081C12.6382 59.9731 8.19966 59.9731 4.85619 56.5905C3.72298 55.4473 2.76827 54.1666 2.26485 52.6864C-0.421762 44.7991 -0.845964 36.8115 1.6832 28.8008C3.25966 23.8006 7.54781 20.6908 12.8599 20.6016C16.7449 20.5364 20.6309 20.5885 24.5159 20.5885L24.5179 20.5745ZM31.4395 9.4229C31.277 7.51449 30.2511 6.12155 28.1341 6.06338C25.8186 6.00321 24.6222 7.40318 24.6192 9.68163C24.6172 11.7936 25.7674 13.1464 27.8694 13.2076C30.1789 13.2748 31.2971 11.8438 31.4395 9.4229Z" fill="#386F9F"/>
<path fill-rule="evenodd" clip-rule="evenodd" d="M53.59 59.2396C49.338 59.2396 45.0839 59.2025 40.8319 59.2697C39.8742 59.2818 38.2676 58.676 38.2175 60.3137C38.1613 62.1709 39.8852 61.6876 40.9803 61.6986C45.2324 61.7517 49.4884 61.7969 53.7395 61.6785C55.9236 61.6184 56.8152 62.0366 56.9786 64.6118C57.7177 76.2699 52.6584 77.2777 43.327 79.3987C37.9738 80.6152 32.2345 79.9703 26.9556 77.6057C22.5902 75.6531 19.9116 72.8391 20.2496 67.5702C20.5845 62.3695 20.6407 57.1016 20.2406 51.9059C19.7592 45.6351 23.6603 41.023 31.2467 41.021C36.3512 41.02 41.4898 40.6309 46.5501 41.0962C53.7856 41.7601 59.4587 35.4884 59.7074 28.1957C59.7174 27.954 59.6552 27.6943 59.7174 27.4697C60.3552 25.2283 58.0868 21.8969 61.1214 20.7647C65.7074 19.0548 70.879 20.8519 73.2216 24.3318C76.175 28.7132 76.5741 33.8688 77.0515 38.903C77.5679 44.3294 76.0456 49.4379 73.7662 54.3327C72.2178 57.6521 69.6144 59.2567 65.9871 59.2617C61.8554 59.2647 57.7247 59.2617 53.592 59.2617L53.59 59.2396ZM52.4829 70.0703C52.0286 67.9984 51.094 66.5844 48.6871 66.5253C46.1841 66.4651 45.5382 68.3374 45.5513 70.0091C45.5653 71.7862 46.0607 73.9724 48.7704 73.7678C51.0228 73.5953 52.1209 72.2003 52.4829 70.0703Z" fill="#FFCF46"/>
</svg>
