<svg width="80" height="80" viewBox="0 0 80 80" fill="none" xmlns="http://www.w3.org/2000/svg">
<path d="M72.7529 4.16643C71.6335 6.85354 70.1997 9.39857 68.4815 11.7484C60.9558 4.22703 50.7517 0.00136091 40.1118 0C18.1076 0 5.38662e-09 18.1226 5.38662e-09 40.1512C-8.90579e-05 45.5909 1.10426 50.9739 3.24614 55.9742C5.38801 60.9744 8.52281 65.4877 12.4606 69.2406L13.94 70.5526C21.1701 76.6485 30.3212 79.9945 39.7782 80C60.6991 80 78.2857 63.6067 79.7751 42.7133C80.869 32.4856 77.869 19.5496 72.7529 4.16643ZM18.1595 69.4693C17.8374 69.8661 17.4309 70.1861 16.9695 70.4059C16.5081 70.6257 16.0035 70.7399 15.4925 70.74C13.607 70.74 12.0645 69.1881 12.0645 67.3027C12.0645 65.4172 13.617 63.8659 15.4925 63.8659C16.2734 63.8659 17.0449 64.1364 17.6491 64.6369C19.1179 65.8239 19.3471 68.0005 18.1595 69.4693ZM72.5868 57.4504C62.6889 70.6463 41.5494 66.1987 27.9949 66.8341C27.9949 66.8341 25.5884 66.9803 23.1712 67.3758C23.1712 67.3758 24.0771 66.9903 25.2547 66.5423C34.7671 63.2306 39.2678 62.5846 45.0498 59.6164C55.9373 54.0755 66.6998 41.9523 68.9401 29.3393C64.7937 41.4732 52.2282 51.8989 40.7784 56.1378C32.9335 59.0335 18.7636 61.8455 18.7636 61.8455L18.1907 61.5431C8.5434 56.8463 8.25102 35.9429 25.7858 29.1938C33.4645 26.2356 40.8097 27.8606 49.1032 25.8814C57.9589 23.7778 68.2004 17.1324 72.3675 8.46719C77.0349 22.3303 82.6514 44.0352 72.5868 57.4504Z" fill="#77BC1F"/>
</svg>
